# xmcd CD database file
#
# Track frame offsets:
#	182
#	20782
#	36667
#	52362
#	64855
#	81060
#	98190
#	113610
#	128507
#	147375
#
# Disc length: 2139 seconds
#
# Revision: 2
# Processed by: cddbd v1.5.2PL0 Copyright (c) Steve Scherf et al.
# Submitted via: CDex 1.70beta2
#
DISCID=9108590a
DTITLE=Tanya Tucker - Soon
DYEAR=1993
DGENRE=Country
TTITLE0=You Just Watch Me
TTITLE1=Come On Honey
TTITLE2=Soon
TTITLE3=I Love You Anyway
TTITLE4=Let The Good Times Roll
TTITLE5=We Don't Have To Do This
TTITLE6=Hangin' In
TTITLE7=Sneaky Moon
TTITLE8=Silence Is King
TTITLE9=A Blue Guitar
EXTD=YEAR: 1993
EXTT0=
EXTT1=
EXTT2=
EXTT3=
EXTT4=
EXTT5=
EXTT6=
EXTT7=
EXTT8=
EXTT9=
PLAYORDER=
